<?xml version="1.0" encoding="UTF-8"?>
<svg width="100px" height="19px" viewBox="0 0 100 19" version="1.1" xmlns="http://www.w3.org/2000/svg" xmlns:xlink="http://www.w3.org/1999/xlink">
    <!-- Generator: Sketch 58 (84663) - https://sketch.com -->
    <title>白文字</title>
    <desc>Created with Sketch.</desc>
    <g id="页面-1" stroke="none" stroke-width="1" fill="none" fill-rule="evenodd">
        <g id="白文字" fill="#FFFFFF">
            <path d="M9.66676749,7.77882543 L16.954023,7.77882543 L16.954023,17.3962823 C16.061706,17.6791487 15.0206695,17.8205819 13.979633,17.9620151 C12.9385965,18.1034483 11.89756,18.1034483 10.707804,18.1034483 C7.138536,18.1034483 4.461585,17.3962823 2.676951,15.8405172 C0.892316999,14.2847522 0,12.1632543 0,9.19315733 C0,6.36449353 0.892316999,4.1015625 2.8256705,2.40436422 C4.6103045,0.848599138 7.2872555,0 10.707804,0 C11.7488405,0 12.6411575,0 13.682194,0.14143319 C14.7232305,0.282866379 15.6155475,0.424299569 16.656584,0.707165948 L16.2104255,4.24299569 C15.466828,3.81869612 14.7232305,3.53582974 13.8309135,3.39439655 C13.087316,3.25296336 12.194999,3.11153017 11.302682,3.11153017 C9.36932849,3.11153017 7.73341399,3.67726293 6.6923775,4.66729526 C5.5026215,5.65732759 4.9077435,7.07165948 4.9077435,8.91029095 C4.9077435,10.6074892 5.353902,12.0218211 6.3949385,13.0118534 C7.43597499,14.0018858 8.77445049,14.5676185 10.5590845,14.5676185 L11.600121,14.5676185 C11.89756,14.5676185 12.194999,14.4261853 12.492438,14.4261853 L12.492438,11.0317888 L9.66676749,7.77882543 Z" id="Fill-1备份-7"></path>
            <path d="M21.0727969,0.574712644 L28.4482759,0.574712644 L28.4482759,11.3181313 C28.4482759,13.5799036 27.9967159,15.4175936 26.9430761,16.407119 C25.7389163,17.5380052 24.2337165,18.1034483 22.1264368,18.1034483 C21.5243569,18.1034483 21.0727969,18.1034483 20.470717,17.9620875 C19.8686371,17.8207267 19.4170772,17.8207267 18.9655172,17.679366 L18.9655172,13.8626251 C19.2665572,14.0039859 19.4170772,14.0039859 19.7181171,14.1453467 C20.0191571,14.1453467 20.1696771,14.2867075 20.470717,14.2867075 C21.5243569,14.2867075 22.4274767,14.0039859 22.8790367,13.4385428 C23.3305966,12.8730997 23.6316366,11.7422136 23.6316366,10.3286059 L23.6316366,3.68464961 L21.0727969,0.574712644 Z" id="Fill-3备份-7"></path>
            <polygon id="Fill-5备份-7" points="32.0466189 13.7931034 36.2068966 13.7931034 36.2068966 17.816092 31.8965517 17.816092 31.8965517 13.7931034"></polygon>
            <path d="M54.8850575,0.855281021 L54.4374447,4.41895194 C53.6914235,3.99131143 53.0946065,3.70621776 52.3485853,3.56367092 C51.6025641,3.42112408 50.8565429,3.27857725 50.1105217,3.27857725 C48.3200707,3.27857725 46.8280283,3.84876459 45.7835986,4.84659245 C44.7391689,5.84442031 44.1423519,7.26988868 44.1423519,8.98045072 C44.1423519,10.6910128 44.7391689,12.1164811 45.7835986,13.114309 C46.8280283,14.1121368 48.3200707,14.6823242 50.1105217,14.6823242 C50.8565429,14.6823242 51.6025641,14.5397774 52.3485853,14.3972305 C53.0946065,14.2546837 53.8406278,13.96959 54.586649,13.6844963 L54.8850575,17.5332609 C53.989832,17.8183546 53.0946065,17.9609014 52.3485853,18.1034483 L49.8121132,18.1034483 C46.5296198,18.1034483 43.9931477,17.2481673 42.0534925,15.680152 C40.2630416,14.1121368 39.3678161,11.8313875 39.3678161,8.98045072 C39.3678161,6.27206082 40.2630416,3.99131143 42.0534925,2.42329623 C43.8439434,0.855281021 46.3804156,0 49.3645004,0 C50.4089302,0 51.4533599,0.142546837 52.3485853,0.285093674 C53.2438108,0.285093674 54.1390363,0.570187347 54.8850575,0.855281021" id="Fill-7备份-7"></path>
            <path d="M66.0230835,3.27857725 C64.8261613,3.27857725 63.7788544,3.84876459 63.030778,4.84659245 C62.2827016,5.84442031 61.8338558,7.26988868 61.8338558,8.98045072 C61.8338558,10.6910128 62.2827016,12.1164811 63.030778,13.114309 C63.7788544,14.1121368 64.8261613,14.6823242 66.0230835,14.6823242 C67.2215019,14.6823242 68.2673126,14.1121368 69.015389,13.114309 C69.7634654,12.1164811 70.2138074,10.6910128 70.2138074,8.98045072 C70.2138074,7.26988868 69.7634654,5.84442031 69.015389,4.84659245 C68.2673126,3.84876459 67.2215019,3.27857725 66.0230835,3.27857725 M66.0230835,0 C68.8657737,0 71.1100028,0.855281021 72.6061556,2.42329623 C74.2519236,3.99131143 75,6.27206082 75,9.12299756 C75,11.9739343 74.2519236,14.2546837 72.6061556,15.8226989 C71.1100028,17.2481673 68.8657737,18.1034483 66.0230835,18.1034483 C63.1818894,18.1034483 60.9376603,17.2481673 59.2903961,15.680152 C57.6446281,14.1121368 56.8965517,11.8313875 56.8965517,8.98045072 C56.8965517,6.12951398 57.6446281,3.84876459 59.2903961,2.28074939 C60.9376603,0.712734184 63.1818894,0 66.0230835,0" id="Fill-9备份-7"></path>
            <path d="M77.8735632,0.574712644 L85.1500424,0.574712644 L88.4170331,10.977946 C88.5655327,11.4054761 88.7140322,11.8330063 88.7140322,12.4030464 C88.8625318,12.9730866 88.8625318,13.5431268 88.8625318,14.113167 C88.8625318,13.4006168 89.0110314,12.8305766 89.159531,12.4030464 C89.3080305,11.8330063 89.3080305,11.4054761 89.4565301,10.977946 L92.7235208,0.717222689 L100,0.717222689 L100,18.1034483 L95.5450127,18.1034483 L95.5450127,6.41762452 L95.5450127,4.70750397 C95.5450127,4.13746379 95.6935123,3.42491356 95.6935123,2.85487338 C95.5450127,3.42491356 95.3965132,3.8524437 95.3965132,4.27997383 C95.2480136,4.70750397 95.099514,5.13503411 94.9510144,5.56256425 L90.9415259,17.9609382 L86.6350382,17.9609382 L82.6255496,5.70507429 C82.4770501,5.27754415 82.3285505,4.85001402 82.1800509,4.27997383 C82.0315513,3.70993365 81.8830518,3.28240351 81.8830518,2.56985328 C81.8830518,3.42491356 82.0315513,4.13746379 82.0315513,4.85001402 L82.0315513,6.27511448 L82.0315513,17.8184282 L77.8735632,17.8184282 L77.8735632,0.574712644 Z" id="Fill-11备份-7"></path>
        </g>
    </g>
</svg>